<?xml version="1.0" encoding="UTF-8" standalone="no"?>
<svg
   xmlns:dc="http://purl.org/dc/elements/1.1/"
   xmlns:cc="http://creativecommons.org/ns#"
   xmlns:rdf="http://www.w3.org/1999/02/22-rdf-syntax-ns#"
   xmlns:svg="http://www.w3.org/2000/svg"
   xmlns="http://www.w3.org/2000/svg"
   xmlns:sodipodi="http://sodipodi.sourceforge.net/DTD/sodipodi-0.dtd"
   xmlns:inkscape="http://www.inkscape.org/namespaces/inkscape"
   version="1.1"
   id="Layer_1"
   x="0px"
   y="0px"
   width="100"
   height="100"
   viewBox="0 0 99.999998 100"
   enable-background="new 0 0 81.914 100"
   xml:space="preserve"
   inkscape:version="0.48.3.1 r9886"
   sodipodi:docname="noaccess_print.pdf"><metadata
   id="metadata13"><rdf:RDF><cc:Work
       rdf:about=""><dc:format>image/svg+xml</dc:format><dc:type
         rdf:resource="http://purl.org/dc/dcmitype/StillImage" /><dc:title></dc:title></cc:Work></rdf:RDF></metadata><defs
   id="defs11" /><sodipodi:namedview
   pagecolor="#ffffff"
   bordercolor="#666666"
   borderopacity="1"
   objecttolerance="10"
   gridtolerance="10"
   guidetolerance="10"
   inkscape:pageopacity="0"
   inkscape:pageshadow="2"
   inkscape:window-width="1280"
   inkscape:window-height="744"
   id="namedview9"
   showgrid="false"
   inkscape:zoom="2.36"
   inkscape:cx="-34.254863"
   inkscape:cy="50"
   inkscape:window-x="0"
   inkscape:window-y="27"
   inkscape:window-maximized="1"
   inkscape:current-layer="Layer_1" />
<path
   d="m 50.774,10.248 c 0,5.664 -4.589,10.26 -10.253,10.26 -5.664,0 -10.254,-4.596 -10.254,-10.26 C 30.267,4.584 34.856,0 40.52,0 46.184,0 50.774,4.583 50.774,10.248 z"
   id="path3"
   inkscape:connector-curvature="0"
   style="fill:#cccccc" />
<path
   d="m 40.767,93.425 c -13.594,0 -24.648,-11.055 -24.648,-24.643 0,-9.16 5.078,-17.076 12.507,-21.321 V 40.026 C 17.427,44.766 9.55,55.872 9.55,68.782 9.55,85.989 23.548,100 40.767,100 52.193,100 62.108,93.737 67.538,84.544 L 64.166,76.101 C 61.028,86.106 51.796,93.425 40.767,93.425 z"
   id="path5"
   inkscape:connector-curvature="0"
   style="fill:#cccccc" />
<path
   d="M 86.549,78.431 H 79.14 c 0,0 -4.485,-12.793 -5.742,-16.191 -0.808,-2.246 -2.91,-3.88 -5.437,-3.88 H 49.973 V 45.781 h 17.064 c 2.259,0 4.095,-1.823 4.095,-4.088 0,-2.265 -1.836,-4.115 -4.095,-4.115 H 49.973 c 0,0 -0.983,-14.922 -9.453,-14.922 -5.801,0 -7.787,4.707 -7.787,10.508 v 26.341 c 0,5.808 4.713,10.521 10.508,10.521 0.176,0 0.319,-0.092 0.488,-0.092 0.163,0.007 0.312,0.092 0.488,0.092 h 21.94 l 7.298,18.242 h 13.093 c 2.708,0 4.915,-2.207 4.915,-4.922 0.001,-2.721 -2.206,-4.915 -4.914,-4.915 z"
   id="path7"
   inkscape:connector-curvature="0"
   style="fill:#cccccc" />
</svg>