<?xml version="1.0" encoding="UTF-8" standalone="no"?>
<!-- Generator: Adobe Illustrator 15.1.0, SVG Export Plug-In . SVG Version: 6.00 Build 0)  -->

<svg
   xmlns:dc="http://purl.org/dc/elements/1.1/"
   xmlns:cc="http://creativecommons.org/ns#"
   xmlns:rdf="http://www.w3.org/1999/02/22-rdf-syntax-ns#"
   xmlns:svg="http://www.w3.org/2000/svg"
   xmlns="http://www.w3.org/2000/svg"
   xmlns:sodipodi="http://sodipodi.sourceforge.net/DTD/sodipodi-0.dtd"
   xmlns:inkscape="http://www.inkscape.org/namespaces/inkscape"
   version="1.1"
   id="Layer_1"
   x="0px"
   y="0px"
   width="100"
   height="100"
   viewBox="0 0 100 100"
   enable-background="new 0 0 100 78.84"
   xml:space="preserve"
   inkscape:version="0.48.3.1 r9886"
   sodipodi:docname="nowifi.svg"><metadata
   id="metadata15"><rdf:RDF><cc:Work
       rdf:about=""><dc:format>image/svg+xml</dc:format><dc:type
         rdf:resource="http://purl.org/dc/dcmitype/StillImage" /><dc:title></dc:title></cc:Work></rdf:RDF></metadata><defs
   id="defs13" /><sodipodi:namedview
   pagecolor="#ffffff"
   bordercolor="#666666"
   borderopacity="1"
   objecttolerance="10"
   gridtolerance="10"
   guidetolerance="10"
   inkscape:pageopacity="0"
   inkscape:pageshadow="2"
   inkscape:window-width="1280"
   inkscape:window-height="744"
   id="namedview11"
   showgrid="false"
   inkscape:zoom="2.9934045"
   inkscape:cx="-9.2970311"
   inkscape:cy="39.419998"
   inkscape:window-x="0"
   inkscape:window-y="27"
   inkscape:window-maximized="1"
   inkscape:current-layer="Layer_1" />
<path
   d="m 71.703,59.122005 c -5.576,-5.531 -13.246,-8.955 -21.703,-8.955 -8.457,0 -16.127,3.424 -21.703,8.955 -0.059,0.059 -0.118,0.117 -0.176,0.176 l 7.032,7.033 c 0.058,-0.059 0.117,-0.119 0.176,-0.176 3.775,-3.732 8.957,-6.041 14.671,-6.041 5.715,0 10.896,2.309 14.672,6.041 0.059,0.057 0.117,0.117 0.176,0.176 l 7.031,-7.033 c -0.059,-0.059 -0.117,-0.117 -0.176,-0.176 z"
   id="path3"
   inkscape:connector-curvature="0"
   style="fill:#cccccc" />
<path
   d="m 85.764,45.063005 c -9.178,-9.135 -21.823,-14.789 -35.764,-14.789 -13.941,0 -26.585,5.655 -35.764,14.789 -0.059,0.058 -0.118,0.117 -0.176,0.176 l 7.03,7.03 c 0.058,-0.059 0.117,-0.117 0.176,-0.176 7.378,-7.334 17.535,-11.873 28.734,-11.873 11.199,0 21.355,4.539 28.733,11.873 0.059,0.059 0.118,0.117 0.176,0.176 l 7.03,-7.03 c -0.058,-0.059 -0.117,-0.118 -0.175,-0.176 z"
   id="path5"
   inkscape:connector-curvature="0"
   style="fill:#cccccc" />
<path
   d="m 99.824,31.002005 c -12.781,-12.736 -30.398,-20.622 -49.824,-20.622 -19.426,0 -37.043,7.886 -49.824,20.622 -0.058,0.059 -0.117,0.118 -0.176,0.176 l 7.03,7.03 c 0.059,-0.059 0.117,-0.117 0.176,-0.176 10.98,-10.935 26.11,-17.705 42.794,-17.705 16.684,0 31.814,6.771 42.794,17.706 0.059,0.059 0.117,0.117 0.176,0.176 l 7.03,-7.03 c -0.059,-0.059 -0.117,-0.118 -0.176,-0.177 z"
   id="path7"
   inkscape:connector-curvature="0"
   style="fill:#cccccc" />
<circle
   cx="50.058998"
   cy="70.839996"
   r="8"
   id="circle9"
   sodipodi:cx="50.058998"
   sodipodi:cy="70.839996"
   sodipodi:rx="8"
   sodipodi:ry="8"
   transform="translate(0,10.380005)"
   style="fill:#cccccc" />
</svg>